<svg version="1.1" id="Layer_1" xmlns="http://www.w3.org/2000/svg" xmlns:xlink="http://www.w3.org/1999/xlink" x="0px" y="0px"
	 width="100%" viewBox="0 0 512 512" enable-background="new 0 0 512 512" xml:space="preserve">
<path fill="#00B0FF" opacity="1.000000" stroke="none" 
	d="
M513.000000,225.000000 
	C513.000000,246.020889 513.000000,267.041779 512.647644,288.207214 
	C511.863861,289.361206 511.211365,290.333954 511.036743,291.385986 
	C509.865540,298.441772 509.246246,305.620331 507.612396,312.562439 
	C501.801605,337.252106 493.244507,360.895844 480.573273,383.015472 
	C471.566406,398.738403 461.398102,413.654266 449.279541,427.026062 
	C430.815704,447.399292 410.118591,465.258331 385.986603,478.345642 
	C386.001373,438.133179 386.011536,398.376770 386.414551,358.487610 
	C392.623901,358.054779 396.778259,355.106201 399.782776,350.272400 
	C432.041504,298.372955 436.612885,244.194138 412.971161,187.793823 
	C405.701233,170.450500 394.832245,155.355301 382.948639,140.855438 
	C383.503174,138.429642 383.964722,136.313171 383.967957,134.196030 
	C384.014709,103.535614 383.976349,72.875053 384.045074,42.214718 
	C384.050568,39.770760 384.694763,37.328232 385.402466,34.939056 
	C386.701447,35.619152 387.610229,36.296375 388.583099,36.863838 
	C415.104401,52.333439 437.539337,72.464813 456.828278,96.270340 
	C470.621918,113.293800 482.105347,131.674301 490.986267,151.721725 
	C501.101929,174.556442 508.411102,198.141846 511.080048,223.064713 
	C511.155609,223.770248 512.335205,224.357574 513.000000,225.000000 
z"/>
<path fill="#000000" opacity="1.000000" stroke="none" 
	d="
M513.000000,224.531342 
	C512.335205,224.357574 511.155609,223.770248 511.080048,223.064713 
	C508.411102,198.141846 501.101929,174.556442 490.986267,151.721725 
	C482.105347,131.674301 470.621918,113.293800 456.828278,96.270340 
	C437.539337,72.464813 415.104401,52.333439 388.583099,36.863838 
	C387.610229,36.296375 386.701447,35.619152 385.241425,34.624176 
	C372.326202,28.471178 360.153442,22.131584 347.467163,17.082125 
	C337.659393,13.178387 327.208374,10.890827 316.837982,7.540721 
	C307.716034,5.773674 298.795654,4.372793 289.895386,2.853961 
	C289.502899,2.786981 289.294250,1.642553 289.000000,1.000002 
	C363.593719,1.000000 438.187408,1.000000 513.000000,1.000000 
	C513.000000,75.354088 513.000000,149.708389 513.000000,224.531342 
z"/>
<path fill="#000000" opacity="1.000000" stroke="none" 
	d="
M225.000000,513.000000 
	C150.406296,513.000000 75.812599,513.000000 1.000000,513.000000 
	C1.000000,438.645905 1.000000,364.291626 1.340615,289.132385 
	C2.155177,290.985931 2.520039,293.669342 3.121979,296.298492 
	C5.709888,307.601929 7.859684,319.038116 11.113887,330.149261 
	C16.537323,348.666992 23.344412,366.687012 33.940987,383.410645 
	C35.656513,386.677643 37.069675,389.762512 39.027782,392.450317 
	C47.249233,403.735687 55.633739,414.902283 64.090843,426.416626 
	C69.520844,432.019226 74.671669,437.475677 80.157867,442.571045 
	C85.558426,447.586884 91.299019,452.236603 97.026497,457.365479 
	C100.217651,460.064972 103.105522,462.709198 106.360016,464.776184 
	C115.143524,470.354797 124.083168,475.687531 133.099670,481.441528 
	C144.158569,486.787933 155.078659,491.810608 166.342026,497.008240 
	C177.456238,500.399933 188.227173,503.616669 199.400909,506.917297 
	C207.079819,508.333984 214.368134,509.605988 221.620102,511.059418 
	C222.827850,511.301483 223.877365,512.333191 225.000000,513.000000 
z"/>
<path fill="#000000" opacity="1.000000" stroke="none" 
	d="
M385.981964,478.801666 
	C410.118591,465.258331 430.815704,447.399292 449.279541,427.026062 
	C461.398102,413.654266 471.566406,398.738403 480.573273,383.015472 
	C493.244507,360.895844 501.801605,337.252106 507.612396,312.562439 
	C509.246246,305.620331 509.865540,298.441772 511.036743,291.385986 
	C511.211365,290.333954 511.863861,289.361206 512.647644,288.675903 
	C513.000000,363.593719 513.000000,438.187408 513.000000,513.000000 
	C438.645905,513.000000 364.291626,513.000000 289.140717,512.651489 
	C289.184601,511.871918 289.998596,511.130310 290.869507,511.056000 
	C306.054260,509.760559 320.697693,506.099670 335.440430,501.062683 
	C353.495026,495.742554 370.160400,488.224548 385.981964,478.801666 
z"/>
<path fill="#000000" opacity="1.000000" stroke="none" 
	d="
M1.000000,224.000000 
	C1.000000,149.739456 1.000000,75.478920 1.000000,1.000000 
	C75.354088,1.000000 149.708389,1.000000 224.863312,1.343325 
	C219.775177,2.846680 213.886414,4.006710 207.596588,5.103049 
	C204.386887,5.694919 201.522980,6.174685 198.779129,7.036607 
	C187.165939,10.684650 175.588455,14.446325 163.622894,18.098675 
	C159.249695,19.689020 155.084427,21.034584 151.285629,23.065626 
	C141.092850,28.515228 131.056900,34.258156 120.599876,39.939972 
	C119.162552,40.664040 118.017273,41.245831 117.015907,42.014969 
	C107.980858,48.954624 98.971031,55.927113 89.603340,62.938469 
	C80.820946,71.284637 72.389015,79.582306 63.636513,88.021744 
	C58.739635,94.078514 53.858662,99.786423 49.662434,105.959785 
	C44.143688,114.078804 39.163666,122.564011 33.630440,131.048279 
	C29.632687,138.569290 25.682852,145.811691 22.331926,153.321335 
	C12.530453,175.287079 5.773167,198.143463 2.917574,222.094757 
	C2.833958,222.796082 1.663638,223.367828 1.000000,224.000000 
z"/>
<path fill="#00EDFF" opacity="1.000000" stroke="none" 
	d="
M1.000000,224.468658 
	C1.663638,223.367828 2.833958,222.796082 2.917574,222.094757 
	C5.773167,198.143463 12.530453,175.287079 22.331926,153.321335 
	C25.682852,145.811691 29.632687,138.569290 33.799191,131.438156 
	C34.526237,133.470474 34.969250,135.269333 34.970039,137.068390 
	C35.004375,215.046295 35.015968,293.024231 34.952175,371.002106 
	C34.948891,375.016998 34.259323,379.031311 33.889271,383.045898 
	C23.344412,366.687012 16.537323,348.666992 11.113887,330.149261 
	C7.859684,319.038116 5.709888,307.601929 3.121979,296.298492 
	C2.520039,293.669342 2.155177,290.985931 1.340615,288.663757 
	C1.000000,267.645782 1.000000,246.291550 1.000000,224.468658 
z"/>
<path fill="#00BEFF" opacity="1.000000" stroke="none" 
	d="
M288.531342,1.000002 
	C289.294250,1.642553 289.502899,2.786981 289.895386,2.853961 
	C298.795654,4.372793 307.716034,5.773674 316.822937,7.975292 
	C316.675446,13.882490 316.075928,19.009487 316.044617,24.139956 
	C315.897247,48.290146 315.905701,72.441292 315.471313,96.499680 
	C295.355957,89.220619 274.893036,86.355560 253.999939,85.550720 
	C254.000015,57.053844 254.000000,29.026922 254.000000,1.000000 
	C265.354218,1.000000 276.708466,1.000000 288.531342,1.000002 
z"/>
<path fill="#00BCFF" opacity="1.000000" stroke="none" 
	d="
M335.045990,501.110596 
	C320.697693,506.099670 306.054260,509.760559 290.869507,511.056000 
	C289.998596,511.130310 289.184601,511.871918 288.672058,512.651489 
	C286.299988,513.000000 283.599976,513.000000 280.368774,512.590088 
	C279.558411,509.717896 279.042633,507.256287 279.036407,504.793365 
	C278.970428,478.670502 278.985474,452.547424 279.336121,426.296692 
	C298.378845,423.870453 315.980438,417.969086 333.002533,410.601624 
	C333.001282,438.048096 332.936005,465.035461 333.089905,492.021576 
	C333.107178,495.054871 334.363983,498.081085 335.045990,501.110596 
z"/>
<path fill="#00C6FF" opacity="1.000000" stroke="none" 
	d="
M253.531342,1.000000 
	C254.000000,29.026922 254.000015,57.053844 253.572464,85.665207 
	C238.112411,88.554718 223.079895,90.859787 207.969574,92.742493 
	C207.594513,89.860199 207.046570,87.401031 207.039200,84.940247 
	C206.972382,62.639843 206.948273,40.338928 207.045059,18.038746 
	C207.063690,13.746778 207.665085,9.457342 207.997620,5.166739 
	C213.886414,4.006710 219.775177,2.846680 225.331970,1.343325 
	C234.354233,1.000000 243.708450,1.000000 253.531342,1.000000 
z"/>
<path fill="#00C1FF" opacity="1.000000" stroke="none" 
	d="
M278.978210,426.424408 
	C278.985474,452.547424 278.970428,478.670502 279.036407,504.793365 
	C279.042633,507.256287 279.558411,509.717896 279.918823,512.590088 
	C266.312439,513.000000 252.624878,513.000000 238.394684,512.588745 
	C237.568222,510.213745 237.040482,508.250458 237.037445,506.286346 
	C236.996552,479.805481 237.028687,453.324463 237.498199,426.803528 
	C251.628525,426.650543 265.303375,426.537476 278.978210,426.424408 
z"/>
<path fill="#00C8FF" opacity="1.000000" stroke="none" 
	d="
M237.042740,426.843506 
	C237.028687,453.324463 236.996552,479.805481 237.037445,506.286346 
	C237.040482,508.250458 237.568222,510.213745 237.926025,512.588745 
	C233.975449,513.000000 229.950912,513.000000 225.463181,513.000000 
	C223.877365,512.333191 222.827850,511.301483 221.620102,511.059418 
	C214.368134,509.605988 207.079819,508.333984 199.401382,506.459259 
	C199.007645,476.579285 199.016205,447.241241 199.413696,417.915466 
	C212.216019,420.899658 224.629379,423.871582 237.042740,426.843506 
z"/>
<path fill="#FDFFFF" opacity="1.000000" stroke="none" 
	d="
M237.498199,426.803528 
	C224.629379,423.871582 212.216019,420.899658 199.163589,417.667175 
	C187.725571,412.183197 176.926605,406.959747 165.935089,401.466187 
	C155.576752,393.102142 145.410980,385.008240 135.102997,376.604126 
	C120.233246,360.884521 108.339867,343.568512 99.741013,323.651276 
	C86.738106,292.067749 83.120804,259.803375 89.056267,226.506714 
	C90.276367,219.662262 91.752396,212.863434 93.437126,205.879303 
	C93.882149,205.073120 93.895523,204.389038 94.134132,203.795486 
	C101.494049,185.486969 110.092201,167.845688 122.410599,151.899658 
	C134.898880,135.964630 149.853439,123.226028 166.631531,112.056953 
	C180.657623,105.710800 194.352509,99.437828 208.047394,93.164856 
	C223.079895,90.859787 238.112411,88.554718 253.572388,86.135155 
	C274.893036,86.355560 295.355957,89.220619 315.763916,96.666367 
	C322.364838,99.547722 328.382050,101.974236 334.189056,104.828468 
	C352.613068,113.884132 368.314606,126.620338 382.642517,141.164459 
	C394.832245,155.355301 405.701233,170.450500 412.971161,187.793823 
	C436.612885,244.194138 432.041504,298.372955 399.782776,350.272400 
	C396.778259,355.106201 392.623901,358.054779 386.034241,358.333191 
	C372.789520,356.201904 367.729645,345.285370 374.226898,334.484894 
	C375.256195,332.773773 376.370850,331.113953 377.397186,329.401154 
	C387.948273,311.792389 394.541351,292.862823 396.762756,272.167694 
	C373.600647,272.167694 350.801270,272.167694 327.545868,272.098145 
	C323.610168,272.028625 320.130524,272.028625 316.494812,272.028625 
	C309.107147,296.109222 293.322083,311.167816 268.582397,317.138428 
	C256.072296,319.343201 244.375732,317.876648 232.681915,313.190308 
	C219.398071,306.770477 208.939911,297.851105 202.206726,284.506714 
	C200.558380,280.178833 198.988419,276.212097 197.387604,272.167419 
	C186.871582,272.167419 176.436676,272.167419 165.537506,272.098206 
	C149.159042,272.028961 133.244843,272.028961 116.691727,272.028961 
	C118.236847,279.561005 119.267784,286.485229 121.100777,293.190155 
	C128.666138,320.863617 142.943832,344.394775 165.157227,363.288940 
	C175.789124,372.518280 187.152847,380.046509 200.133728,385.646393 
	C210.910690,388.957031 221.436508,392.032257 232.298126,395.317017 
	C245.089676,395.972626 257.545410,396.418701 270.424103,396.921082 
	C291.264587,394.801117 310.527527,389.122650 328.404236,378.047699 
	C336.618469,373.202362 345.942200,375.173492 350.346954,382.533051 
	C354.737793,389.869385 352.364899,398.725616 344.599854,403.504181 
	C340.808441,405.837341 336.873260,407.936920 333.003174,410.142212 
	C315.980438,417.969086 298.378845,423.870453 279.336121,426.296692 
	C265.303375,426.537476 251.628525,426.650543 237.498199,426.803528 
M165.930099,241.968704 
	C176.533371,241.968704 187.136658,241.968704 197.705658,241.968704 
	C198.345215,239.305481 198.848068,237.211548 199.894714,234.709213 
	C206.519577,219.064926 217.519867,207.671539 233.687820,200.474121 
	C247.930222,194.524414 262.394043,194.733597 277.606628,199.307144 
	C297.495178,207.083588 310.354401,221.328949 316.397949,241.832443 
	C320.393219,241.832443 324.197418,241.832443 328.929779,241.969681 
	C351.513092,241.969681 374.096405,241.969681 397.307892,241.969681 
	C395.758911,234.416794 394.762268,227.474548 392.890442,220.776901 
	C382.717407,184.375717 361.669861,156.101105 328.730225,136.041382 
	C312.671539,126.635223 295.630890,120.049255 276.227570,117.722206 
	C261.405457,115.601219 246.637985,115.567123 231.135239,118.817978 
	C218.685089,121.053886 206.713394,124.714035 194.868637,130.875214 
	C184.278900,138.109680 173.689178,145.344162 162.561966,152.877777 
	C136.464249,176.839645 121.451141,206.405746 117.102264,241.832413 
	C133.451523,241.832413 149.226685,241.832413 165.930099,241.968704 
M252.090332,287.824249 
	C253.915543,287.911346 255.745667,288.131561 257.565155,288.064117 
	C270.380646,287.589142 279.822388,281.534180 285.176331,270.003967 
	C290.542358,258.447632 289.101196,247.173187 280.990845,237.308624 
	C272.887177,227.452103 262.179688,223.910065 249.728149,226.812180 
	C235.559555,230.114487 225.969086,242.430908 225.912308,256.788910 
	C225.852524,271.908325 235.389038,283.534882 252.090332,287.824249 
z"/>
<path fill="#00B6FF" opacity="1.000000" stroke="none" 
	d="
M333.002563,410.601654 
	C336.873260,407.936920 340.808441,405.837341 344.599854,403.504181 
	C352.364899,398.725616 354.737793,389.869385 350.346954,382.533051 
	C345.942200,375.173492 336.618469,373.202362 328.395355,377.570984 
	C328.013000,342.169250 328.007446,307.168488 328.001892,272.167694 
	C350.801270,272.167694 373.600647,272.167694 396.762756,272.167694 
	C394.541351,292.862823 387.948273,311.792389 377.397186,329.401154 
	C376.370850,331.113953 375.256195,332.773773 374.226898,334.484894 
	C367.729645,345.285370 372.789520,356.201904 385.641357,358.465942 
	C386.011536,398.376770 386.001373,438.133179 385.986603,478.345642 
	C370.160400,488.224548 353.495026,495.742554 335.440430,501.062683 
	C334.363983,498.081085 333.107178,495.054871 333.089905,492.021576 
	C332.936005,465.035461 333.001282,438.048096 333.002563,410.601654 
z"/>
<path fill="#00B7FF" opacity="1.000000" stroke="none" 
	d="
M382.948639,140.855438 
	C368.314606,126.620338 352.613068,113.884132 334.189056,104.828468 
	C328.382050,101.974236 322.364838,99.547722 316.151184,96.758774 
	C315.905701,72.441292 315.897247,48.290146 316.044617,24.139956 
	C316.075928,19.009487 316.675446,13.882490 317.028259,8.319324 
	C327.208374,10.890827 337.659393,13.178387 347.467163,17.082125 
	C360.153442,22.131584 372.326202,28.471178 384.881104,34.570160 
	C384.694763,37.328232 384.050568,39.770760 384.045074,42.214718 
	C383.976349,72.875053 384.014709,103.535614 383.967957,134.196030 
	C383.964722,136.313171 383.503174,138.429642 382.948639,140.855438 
z"/>
<path fill="#00E0FF" opacity="1.000000" stroke="none" 
	d="
M93.110474,206.043579 
	C91.752396,212.863434 90.276367,219.662262 89.056267,226.506714 
	C83.120804,259.803375 86.738106,292.067749 99.391373,323.810242 
	C98.724266,326.366669 98.049744,328.408691 98.046318,330.451874 
	C97.983063,368.150696 98.037048,405.849792 97.951057,443.548523 
	C97.940788,448.048798 97.260277,452.547516 96.890419,457.046967 
	C91.299019,452.236603 85.558426,447.586884 80.157867,442.571045 
	C74.671669,437.475677 69.520844,432.019226 64.170479,425.998596 
	C64.411858,422.815155 64.962112,420.354156 64.963097,417.892975 
	C65.005844,310.677643 65.007851,203.462326 64.956314,96.247032 
	C64.954971,93.457855 64.304710,90.668983 63.957081,87.879974 
	C72.389015,79.582306 80.820946,71.284637 89.762527,63.301582 
	C90.848106,67.370323 91.914101,71.123039 91.924858,74.878777 
	C92.044189,116.530960 91.984108,158.183640 92.047218,199.836060 
	C92.050354,201.905777 92.740318,203.974426 93.110474,206.043579 
z"/>
<path fill="#00E7FF" opacity="1.000000" stroke="none" 
	d="
M63.636513,88.021744 
	C64.304710,90.668983 64.954971,93.457855 64.956314,96.247032 
	C65.007851,203.462326 65.005844,310.677643 64.963097,417.892975 
	C64.962112,420.354156 64.411858,422.815155 64.038177,425.694305 
	C55.633739,414.902283 47.249233,403.735687 39.027782,392.450317 
	C37.069675,389.762512 35.656513,386.677643 33.940987,383.410645 
	C34.259323,379.031311 34.948891,375.016998 34.952175,371.002106 
	C35.015968,293.024231 35.004375,215.046295 34.970039,137.068390 
	C34.969250,135.269333 34.526237,133.470474 34.120747,131.281647 
	C39.163666,122.564011 44.143688,114.078804 49.662434,105.959785 
	C53.858662,99.786423 58.739635,94.078514 63.636513,88.021744 
z"/>
<path fill="#00D9FF" opacity="1.000000" stroke="none" 
	d="
M97.026505,457.365479 
	C97.260277,452.547516 97.940788,448.048798 97.951057,443.548523 
	C98.037048,405.849792 97.983063,368.150696 98.046318,330.451874 
	C98.049744,328.408691 98.724266,326.366669 99.436043,324.165131 
	C108.339867,343.568512 120.233246,360.884521 134.706970,376.693726 
	C133.635498,379.213165 132.117020,381.329102 132.105820,383.453003 
	C131.949829,413.049835 131.972931,442.647797 132.041977,472.245300 
	C132.048889,475.203522 132.640579,478.160339 132.960861,481.117828 
	C124.083168,475.687531 115.143524,470.354797 106.360016,464.776184 
	C103.105522,462.709198 100.217651,460.064972 97.026505,457.365479 
z"/>
<path fill="#00D3FF" opacity="1.000000" stroke="none" 
	d="
M133.099670,481.441528 
	C132.640579,478.160339 132.048889,475.203522 132.041977,472.245300 
	C131.972931,442.647797 131.949829,413.049835 132.105820,383.453003 
	C132.117020,381.329102 133.635498,379.213165 134.849197,377.003906 
	C145.410980,385.008240 155.576752,393.102142 165.759796,401.866180 
	C165.518036,404.819794 165.038803,407.102753 165.033844,409.386780 
	C164.979782,434.260498 164.953201,459.134552 165.044891,484.008026 
	C165.060654,488.284210 165.665848,492.558258 165.998764,496.833282 
	C155.078659,491.810608 144.158569,486.787933 133.099670,481.441528 
z"/>
<path fill="#00CEFF" opacity="1.000000" stroke="none" 
	d="
M166.342026,497.008240 
	C165.665848,492.558258 165.060654,488.284210 165.044891,484.008026 
	C164.953201,459.134552 164.979782,434.260498 165.033844,409.386780 
	C165.038803,407.102753 165.518036,404.819794 165.952362,402.136292 
	C176.926605,406.959747 187.725571,412.183197 198.774658,417.654907 
	C199.016205,447.241241 199.007645,476.579285 198.998596,506.375366 
	C188.227173,503.616669 177.456238,500.399933 166.342026,497.008240 
z"/>
<path fill="#00D4FF" opacity="1.000000" stroke="none" 
	d="
M166.300339,112.130135 
	C149.853439,123.226028 134.898880,135.964630 122.119919,151.635223 
	C121.027512,149.825439 120.061615,148.115524 120.072594,146.411911 
	C120.301430,110.902382 120.640968,75.393555 120.958672,39.884586 
	C131.056900,34.258156 141.092850,28.515228 151.285629,23.065626 
	C155.084427,21.034584 159.249695,19.689020 163.623444,18.556734 
	C163.999374,48.149788 163.955536,77.217216 164.098907,106.283707 
	C164.108536,108.236092 165.533600,110.181488 166.300339,112.130135 
z"/>
<path fill="#00CDFF" opacity="1.000000" stroke="none" 
	d="
M166.631531,112.056953 
	C165.533600,110.181488 164.108536,108.236092 164.098907,106.283707 
	C163.955536,77.217216 163.999374,48.149788 163.998459,18.624527 
	C175.588455,14.446325 187.165939,10.684650 198.779129,7.036607 
	C201.522980,6.174685 204.386887,5.694919 207.596588,5.103048 
	C207.665085,9.457342 207.063690,13.746778 207.045059,18.038746 
	C206.948273,40.338928 206.972382,62.639843 207.039200,84.940247 
	C207.046570,87.401031 207.594513,89.860199 207.969574,92.742493 
	C194.352509,99.437828 180.657623,105.710800 166.631531,112.056953 
z"/>
<path fill="#00DBFF" opacity="1.000000" stroke="none" 
	d="
M120.599876,39.939972 
	C120.640968,75.393555 120.301430,110.902382 120.072594,146.411911 
	C120.061615,148.115524 121.027512,149.825439 121.829178,151.796844 
	C110.092201,167.845688 101.494049,185.486969 94.134132,203.795486 
	C93.895523,204.389038 93.882149,205.073120 93.437134,205.879303 
	C92.740318,203.974426 92.050354,201.905777 92.047218,199.836060 
	C91.984108,158.183640 92.044189,116.530960 91.924858,74.878777 
	C91.914101,71.123039 90.848106,67.370323 90.112991,63.253082 
	C98.971031,55.927113 107.980858,48.954624 117.015907,42.014969 
	C118.017273,41.245831 119.162552,40.664040 120.599876,39.939972 
z"/>
<path fill="#01BCFF" opacity="1.000000" stroke="none" 
	d="
M327.545868,272.098145 
	C328.007446,307.168488 328.013000,342.169250 328.027466,377.646759 
	C310.527527,389.122650 291.264587,394.801117 270.398956,396.508972 
	C269.633911,393.076874 269.051636,390.114044 269.042084,387.149353 
	C268.966980,363.819916 269.001343,340.490143 269.001984,317.160461 
	C293.322083,311.167816 309.107147,296.109222 316.494812,272.028625 
	C320.130524,272.028625 323.610168,272.028625 327.545868,272.098145 
z"/>
<path fill="#01B7FF" opacity="1.000000" stroke="none" 
	d="
M329.198120,136.507675 
	C361.669861,156.101105 382.717407,184.375717 392.890442,220.776901 
	C394.762268,227.474548 395.758911,234.416794 397.307892,241.969681 
	C374.096405,241.969681 351.513092,241.969681 328.465210,241.443253 
	C328.000427,208.705414 327.972778,176.493942 328.051880,144.282715 
	C328.058228,141.690109 328.798767,139.099319 329.198120,136.507675 
z"/>
<path fill="#01BCFF" opacity="1.000000" stroke="none" 
	d="
M328.964172,136.274536 
	C328.798767,139.099319 328.058228,141.690109 328.051880,144.282715 
	C327.972778,176.493942 328.000427,208.705414 328.001129,241.374634 
	C324.197418,241.832443 320.393219,241.832443 316.397949,241.832443 
	C310.354401,221.328949 297.495178,207.083588 277.303406,198.648865 
	C277.000183,171.337082 277.000183,144.683563 277.000214,118.030052 
	C295.630890,120.049255 312.671539,126.635223 328.964172,136.274536 
z"/>
<path fill="#01C2FF" opacity="1.000000" stroke="none" 
	d="
M276.613892,117.876129 
	C277.000183,144.683563 277.000183,171.337082 277.000458,198.453781 
	C262.394043,194.733597 247.930222,194.524414 233.250854,200.169586 
	C232.542587,197.579773 232.041763,195.295120 232.035248,193.009064 
	C231.964813,168.299911 231.972107,143.590530 231.958160,118.881218 
	C246.637985,115.567123 261.405457,115.601219 276.613892,117.876129 
z"/>
<path fill="#00CDFF" opacity="1.000000" stroke="none" 
	d="
M166.001770,272.167419 
	C176.436676,272.167419 186.871582,272.167419 197.387604,272.167419 
	C198.988419,276.212097 200.558380,280.178833 201.894623,284.763184 
	C201.107285,287.908264 200.083786,290.433502 200.071533,292.963623 
	C199.922287,323.778992 199.921722,354.595093 199.882553,385.410980 
	C187.152847,380.046509 175.789124,372.518280 165.157822,362.856445 
	C165.336105,354.696960 165.912506,347.268799 165.954300,339.837677 
	C166.081146,317.281555 166.001190,294.724243 166.001770,272.167419 
z"/>
<path fill="#00CEFF" opacity="1.000000" stroke="none" 
	d="
M163.099442,152.578629 
	C173.689178,145.344162 184.278900,138.109680 195.528381,131.131622 
	C196.458740,133.489258 196.961578,135.590118 196.965088,137.691803 
	C197.016037,168.235367 196.957428,198.779266 197.100937,229.322250 
	C197.110046,231.257507 198.567337,233.185989 199.350906,235.117615 
	C198.848068,237.211548 198.345215,239.305481 197.705658,241.968704 
	C187.136658,241.968704 176.533371,241.968704 165.465485,241.442780 
	C165.000549,213.732712 165.045227,186.548355 164.917526,159.364822 
	C164.906891,157.099976 163.732925,154.840561 163.099442,152.578629 
z"/>
<path fill="#01C9FF" opacity="1.000000" stroke="none" 
	d="
M199.622803,234.913422 
	C198.567337,233.185989 197.110046,231.257507 197.100937,229.322250 
	C196.957428,198.779266 197.016037,168.235367 196.965088,137.691803 
	C196.961578,135.590118 196.458740,133.489258 195.867874,131.080643 
	C206.713394,124.714035 218.685089,121.053886 231.546692,118.849594 
	C231.972107,143.590530 231.964813,168.299911 232.035248,193.009064 
	C232.041763,195.295120 232.542587,197.579773 232.907806,200.248596 
	C217.519867,207.671539 206.519577,219.064926 199.622803,234.913422 
z"/>
<path fill="#02C2FF" opacity="1.000000" stroke="none" 
	d="
M251.663971,287.744385 
	C235.389038,283.534882 225.852524,271.908325 225.912308,256.788910 
	C225.969086,242.430908 235.559555,230.114487 249.728149,226.812180 
	C262.179688,223.910065 272.887177,227.452103 280.990845,237.308624 
	C289.101196,247.173187 290.542358,258.447632 285.176331,270.003967 
	C279.822388,281.534180 270.380646,287.589142 257.565155,288.064117 
	C255.745667,288.131561 253.915543,287.911346 251.663971,287.744385 
z"/>
<path fill="#01C2FF" opacity="1.000000" stroke="none" 
	d="
M268.582397,317.138428 
	C269.001343,340.490143 268.966980,363.819916 269.042084,387.149353 
	C269.051636,390.114044 269.633911,393.076874 269.976013,396.452698 
	C257.545410,396.418701 245.089676,395.972626 232.307404,394.841309 
	C231.987259,371.017151 231.948746,347.877960 232.044861,324.739349 
	C232.060638,320.946991 232.669250,317.157104 233.003876,313.366058 
	C244.375732,317.876648 256.072296,319.343201 268.582397,317.138428 
z"/>
<path fill="#01D3FF" opacity="1.000000" stroke="none" 
	d="
M165.537506,272.098206 
	C166.001190,294.724243 166.081146,317.281555 165.954300,339.837677 
	C165.912506,347.268799 165.336105,354.696960 165.003555,362.558960 
	C142.943832,344.394775 128.666138,320.863617 121.100777,293.190155 
	C119.267784,286.485229 118.236847,279.561005 116.691727,272.028961 
	C133.244843,272.028961 149.159042,272.028961 165.537506,272.098206 
z"/>
<path fill="#01C8FF" opacity="1.000000" stroke="none" 
	d="
M232.681915,313.190308 
	C232.669250,317.157104 232.060638,320.946991 232.044861,324.739349 
	C231.948746,347.877960 231.987259,371.017151 231.971619,394.631805 
	C221.436508,392.032257 210.910690,388.957031 200.133728,385.646393 
	C199.921722,354.595093 199.922287,323.778992 200.071533,292.963623 
	C200.083786,290.433502 201.107285,287.908264 201.973022,285.124329 
	C208.939911,297.851105 219.398071,306.770477 232.681915,313.190308 
z"/>
<path fill="#01D3FF" opacity="1.000000" stroke="none" 
	d="
M162.830704,152.728210 
	C163.732925,154.840561 164.906891,157.099976 164.917526,159.364822 
	C165.045227,186.548355 165.000549,213.732712 165.001358,241.374634 
	C149.226685,241.832413 133.451523,241.832413 117.102264,241.832413 
	C121.451141,206.405746 136.464249,176.839645 162.830704,152.728210 
z"/>
</svg>